HIERARCHY
ROOT hip
{
	OFFSET 0.000000 0.000000 0.000000 
	CHANNELS 6 Xposition Yposition Zposition Xrotation Zrotation Yrotation
	JOINT abdomen
	{
		OFFSET 0.000000 3.402643 0.000000 
		CHANNELS 3 Xrotation Zrotation Yrotation
		JOINT chest
		{
			OFFSET 0.000000 8.438565 -0.680529 
			CHANNELS 3 Xrotation Zrotation Yrotation
			JOINT neck
			{
				OFFSET 0.000000 10.207942 -0.272212 
				CHANNELS 3 Xrotation Zrotation Yrotation
				JOINT head
				{
					OFFSET 0.000000 3.130431 0.000000 
					CHANNELS 3 Xrotation Zrotation Yrotation
					End Site
					{
						OFFSET 0.000000 3.130435 0.000000 
					}
				}
			}
			JOINT lCollar
			{
				OFFSET 3.470700 6.669187 -0.816635 
				CHANNELS 3 Yrotation Zrotation Xrotation
				JOINT lShldr
				{
					OFFSET 3.198488 0.000000 0.000000 
					CHANNELS 3 Zrotation Yrotation Xrotation
					JOINT lForeArm
					{
						OFFSET 10.139888 0.000000 0.000000 
						CHANNELS 3 Yrotation Zrotation Xrotation
						JOINT lHand
						{
							OFFSET 8.370511 0.000000 0.000000 
							CHANNELS 3 Zrotation Yrotation Xrotation
							End Site
							{
								OFFSET 4.083176 0.000000 0.000000 
							}
						}
					}
				}
			}
			JOINT rCollar
			{
				OFFSET -3.470700 6.669187 -0.816635 
				CHANNELS 3 Yrotation Zrotation Xrotation
				JOINT rShldr
				{
					OFFSET -3.198488 0.000000 0.000000 
					CHANNELS 3 Zrotation Yrotation Xrotation
					JOINT rForeArm
					{
						OFFSET -10.139888 0.000000 0.000000 
						CHANNELS 3 Yrotation Zrotation Xrotation
						JOINT rHand
						{
							OFFSET -8.370511 0.000000 0.000000 
							CHANNELS 3 Zrotation Yrotation Xrotation
							End Site
							{
								OFFSET -4.083176 0.000000 0.000000 
							}
						}
					}
				}
			}
		}
	}
	JOINT lThigh
	{
		OFFSET 5.308129 -1.633274 1.361059 
		CHANNELS 3 Xrotation Zrotation Yrotation
		JOINT lShin
		{
			OFFSET -2.041588 -20.007561 0.000000 
			CHANNELS 3 Xrotation Zrotation Yrotation
			JOINT lFoot
			{
				OFFSET 0.000000 -19.190928 -1.224953 
				CHANNELS 3 Xrotation Yrotation Zrotation
				End Site
				{
					OFFSET 0.000000 -2.449906 4.627600 
				}
			}
		}
	}
	JOINT rThigh
	{
		OFFSET -5.308129 -1.633274 1.361059 
		CHANNELS 3 Xrotation Zrotation Yrotation
		JOINT rShin
		{
			OFFSET 2.041588 -20.007561 0.000000 
			CHANNELS 3 Xrotation Zrotation Yrotation
			JOINT rFoot
			{
				OFFSET 0.000000 -19.190928 -1.224953 
				CHANNELS 3 Xrotation Yrotation Zrotation
				End Site
				{
					OFFSET 0.000000 -2.449906 4.627600 
				}
			}
		}
	}
}
MOTION
Frames: 20
Frame Time: 0.016667
-0.415077 48.664757 1.050837 -12.190372 -2.773251 0.664702 34.523174 1.988247 -3.605409 -17.218616 9.622894 -4.209425 -15.636874 1.131849 2.363784 6.179430 -8.329228 2.911277 7.401676 -3.936805 -0.009661 -78.856514 12.550545 7.663925 -93.707741 3.495018 43.497616 6.421221 25.144236 2.739699 -2.266791 -6.816020 -0.009689 64.995415 -15.990891 -29.065071 71.895920 -4.071658 54.553257 -29.683756 21.382002 -11.416352 -15.673286 15.527028 -13.208815 125.071526 4.847147 -3.200042 40.030617 -8.222860 -6.137509 -11.650994 -0.409511 -4.064544 40.477089 0.615225 3.044493 2.603083 1.289444 12.116486 
-0.625923 49.056541 2.849293 -12.666808 -2.324219 0.019515 35.217823 1.570906 -2.383523 -17.132523 8.914867 -2.856245 -16.289404 0.370974 1.455111 6.468402 -7.886678 1.823046 6.835330 -3.585147 -0.009677 -77.680923 15.371298 8.743352 -91.937958 3.080096 38.197033 6.817376 26.848486 3.085786 -1.221855 -6.728308 -0.009696 67.014709 -11.952033 -28.062128 71.255112 -4.388791 60.208584 -29.345139 31.968550 -16.580246 -21.686430 11.825118 -11.844912 123.956360 4.787768 -3.237341 39.409389 -6.314545 -7.767687 -9.025740 -0.536482 -3.615670 41.023659 0.576039 3.066906 2.081853 1.736804 12.125468 
-0.731045 49.738361 4.751300 -12.970437 -1.933019 -1.397337 35.355537 1.249903 -0.712934 -17.175684 7.391175 -1.121618 -16.018469 -0.273423 0.595696 6.448556 -7.323482 0.816383 6.425288 -2.911249 -0.009692 -74.964256 18.508902 11.253495 -92.289764 2.963540 36.648460 5.875617 25.692446 2.556016 -0.061060 -7.197245 -0.019377 67.533478 -9.398678 -22.244600 71.392654 -4.374721 59.716602 -26.496540 34.009659 -15.545188 -24.941544 9.284841 -8.968978 118.928650 4.495312 -3.449971 38.721958 -5.726187 -8.305357 -6.125762 -1.004550 -2.805711 40.477089 0.615224 3.044493 3.663608 2.823039 11.985657 
-0.836156 50.420147 6.653195 -13.282953 -1.560631 -2.803822 35.493851 0.917841 0.957221 -17.260977 5.868801 0.618999 -15.728041 -0.917958 -0.273559 6.407578 -6.767547 -0.178009 6.005859 -2.246094 0.000000 -72.039116 21.510483 13.980016 -92.642822 2.856957 35.093498 4.949595 24.528431 2.059693 1.102201 -7.666203 -0.009677 68.318375 -6.896041 -16.443140 71.522636 -4.357361 59.223934 -23.533382 35.993664 -14.351662 -28.322596 6.922563 -5.986548 113.894630 4.185336 -3.636423 38.069870 -5.115575 -8.863887 -3.250257 -1.522863 -2.000529 39.931118 0.660467 3.004434 5.245148 3.905382 11.847727 
-0.984044 51.161671 8.626338 -13.525609 -1.480500 -4.142016 35.337002 0.760948 2.578416 -17.308096 4.674195 2.234273 -15.439455 -1.620829 -1.035571 6.723670 -6.258579 -1.120485 5.409936 -1.299749 -0.009720 -69.143570 24.629686 16.497982 -94.003784 2.855991 35.117203 3.314753 22.845554 1.308347 2.086863 -8.682352 -0.019295 68.128044 -4.701389 -7.809034 73.574959 -3.983850 53.908058 -19.239836 31.648712 -10.504644 -29.539932 5.732054 -4.007519 106.675896 3.727266 -3.865959 37.560528 -5.784090 -8.442388 -0.486987 -2.015387 -1.762936 39.188858 0.673729 2.982481 7.427122 4.645270 11.621826 
-1.131926 51.903160 10.599406 -13.770100 -1.419267 -5.480216 35.181770 0.613583 4.199500 -17.393314 3.478500 3.845030 -15.141840 -2.313302 -1.808321 7.021952 -5.748292 -2.052266 4.804628 -0.352380 -0.009731 -66.017792 27.618355 19.256273 -95.372604 2.860862 35.154503 1.713422 21.143976 0.611025 3.072839 -9.698314 -0.019224 68.269241 -2.509143 0.799839 75.653870 -3.797615 48.584602 -15.466189 27.081320 -7.184994 -30.771515 4.588328 -1.970916 99.482101 3.259865 -4.031953 37.074123 -6.454196 -7.978222 2.241723 -2.524455 -1.541384 38.466473 0.712252 2.950322 9.634048 5.373081 11.355752 
-1.325881 52.577072 12.579921 -13.929646 -1.494050 -6.564843 34.889790 0.563650 5.654599 -17.434261 2.518664 5.259116 -14.806577 -2.907470 -2.464207 7.359437 -5.237719 -2.844266 4.179824 0.800070 -0.009875 -62.811562 30.374695 21.931835 -96.925545 2.845354 35.040493 0.386577 19.423361 0.139112 4.029500 -10.763091 -0.019140 67.444580 -0.348643 8.704212 79.775375 -3.186239 42.598125 -13.243730 20.532024 -4.811581 -30.185284 3.865937 -1.145017 90.879639 2.654650 -4.159595 36.562428 -7.225498 -7.525447 4.880627 -3.065107 -2.030717 37.783195 0.741526 2.916719 11.560738 5.553295 11.155971 
-1.519843 53.250977 14.560436 -14.086316 -1.567960 -7.649483 34.597729 0.532980 7.109702 -17.512650 1.561621 6.672490 -14.467442 -3.500672 -3.121341 7.692557 -4.726840 -3.635655 3.555020 1.952520 -0.010074 -59.359058 33.002270 24.854420 -98.480621 2.841146 34.934719 -0.915361 17.683292 -0.285198 4.988197 -11.827021 -0.009522 66.924889 1.895897 16.578043 83.934853 -3.002201 36.591427 -11.365355 13.910720 -2.774338 -29.617876 3.134335 -0.306211 82.310791 2.061668 -4.191946 36.047363 -8.006322 -7.049328 7.516125 -3.573277 -2.532954 37.090115 0.770604 2.882442 13.457493 5.694504 10.934188 
-1.779458 53.764236 16.555294 -14.180123 -1.855026 -8.373574 34.141037 0.608864 8.252522 -17.595638 0.948302 7.745337 -14.040504 -3.888685 -3.631914 7.992470 -4.285211 -4.231015 2.813668 3.426776 -0.020057 -56.168331 35.411785 27.378651 -100.232414 2.826700 34.824619 -1.953937 16.338657 -0.549638 5.923264 -12.961000 -0.018932 66.000175 4.136796 21.685171 88.492737 -2.540972 32.666218 -11.144654 9.256969 -1.824587 -27.831312 2.888930 -0.238553 72.799202 1.407986 -4.133336 36.148407 -8.629057 -6.614897 9.600390 -3.864168 -3.601220 37.431683 0.750917 2.902650 14.958426 5.026760 10.971898 
-2.039079 54.277466 18.550158 -14.266639 -2.140718 -9.098529 33.680943 0.703309 9.405021 -17.701508 0.337757 8.818550 -13.596855 -4.275951 -4.142641 8.292986 -3.843791 -4.825856 2.071151 4.911757 -0.010560 -52.752033 37.705738 30.152905 -101.983971 2.814561 34.717941 -2.985190 14.999596 -0.780973 6.865234 -14.082032 0.002376 65.274284 6.445961 26.766582 93.073456 -2.397537 28.718449 -10.993681 4.599999 -0.901914 -26.066868 2.635590 -0.195492 63.348835 0.746616 -3.940560 36.255135 -9.263458 -6.151659 11.719067 -4.108909 -4.693616 37.772720 0.741065 2.935476 16.483702 4.354307 11.012821 
-2.357344 54.519329 20.548889 -14.388113 -2.572354 -9.414019 33.174145 0.874773 10.147823 -17.703716 0.125222 9.472697 -13.173600 -4.507807 -4.467720 8.502908 -3.520724 -5.185776 1.320552 6.405800 -0.020494 -49.731644 39.591167 32.263931 -103.602272 2.771141 34.211945 -3.786771 14.140228 -0.924535 7.673165 -15.128258 -0.009343 64.494270 8.790730 29.068674 97.081505 -2.162704 26.769859 -11.237089 3.024991 -0.610290 -23.488073 2.723638 -0.668969 53.710461 0.123021 -3.640072 37.013241 -9.475277 -5.843426 13.188927 -4.090792 -5.859075 39.588547 0.653053 3.014362 17.422426 3.279375 11.270264 
-2.675614 54.761143 22.547626 -14.505324 -3.003212 -9.720688 32.662041 1.045287 10.890579 -17.710779 -0.086519 10.136722 -12.757478 -4.729514 -4.801838 8.718538 -3.197883 -5.545893 0.567763 7.910060 -0.011016 -46.521152 41.388943 34.576969 -105.220749 2.730574 33.716339 -4.598084 13.278221 -1.065879 8.486328 -16.162109 0.002718 63.811268 11.158421 31.358480 101.095917 -2.067785 24.805489 -11.488420 1.462275 -0.307019 -20.890360 2.840500 -1.142995 44.056717 -0.461794 -3.248454 37.765038 -9.680192 -5.516078 14.667397 -4.033344 -7.038025 41.413532 0.552795 3.096843 18.382505 2.191413 11.560264 
-3.033949 54.679398 24.563389 -14.862096 -3.456408 -9.647140 32.279240 1.149394 11.242644 -17.656248 0.000000 10.439453 -12.368002 -4.883935 -4.979463 8.813898 -2.963557 -5.750134 -0.104310 9.052771 -0.020825 -43.605915 42.523418 36.169815 -106.517319 2.698839 33.312122 -5.177855 12.692986 -1.149777 8.903307 -16.964401 -0.009228 63.363834 13.350898 31.820257 104.544899 -1.967052 23.915192 -12.155679 1.916860 -0.422544 -17.681519 3.085059 -1.779474 34.999001 -0.909887 -2.811713 39.147514 -9.548396 -5.309608 15.734430 -3.885862 -8.044308 44.477184 0.379499 3.227156 19.191095 1.502424 11.783869 
-3.392286 54.597614 26.579157 -15.210264 -3.909801 -9.573625 31.899689 1.262767 11.594753 -17.589220 0.095945 10.742206 -11.977582 -5.028422 -5.166853 8.896811 -2.719647 -5.954443 -0.779492 10.205211 -0.011340 -40.588459 43.595688 37.872017 -107.811371 2.667135 32.906219 -5.745306 12.097998 -1.216939 9.332850 -17.765257 -0.009177 62.923775 15.548294 32.262768 107.998695 -1.916357 23.025444 -12.833834 2.368799 -0.549411 -14.478524 3.377976 -2.406215 25.929623 -1.280168 -2.321142 40.523746 -9.412372 -5.088347 16.799376 -3.710266 -9.052458 47.538918 0.203568 3.377670 20.008463 0.809299 12.015098 
-3.754414 54.209743 28.610432 -15.793889 -4.251030 -9.234825 31.714003 1.300667 11.673080 -17.515888 0.172667 10.800849 -11.596975 -5.105114 -5.304765 8.877798 -2.476155 -6.099851 -1.316505 10.752178 -0.011414 -37.974621 43.782478 38.517906 -108.608597 2.656826 32.823853 -6.254371 11.649894 -1.276518 9.303486 -18.126581 -0.009159 62.890892 17.402384 31.635637 110.924088 -1.874847 22.702398 -14.126081 3.262734 -0.840440 -11.298409 3.593508 -2.876776 18.947706 -1.523464 -1.876914 41.820778 -9.224857 -4.924008 17.474813 -3.730412 -9.878033 51.439796 -0.001451 3.526003 21.129904 1.163252 11.861548 
-4.116539 53.821838 30.641714 -16.381540 -4.592761 -8.896351 31.528419 1.338543 11.751411 -17.444239 0.239769 10.859484 -11.205301 -5.191465 -5.442688 8.857550 -2.232779 -6.245370 -1.865234 11.308592 0.000000 -35.351452 43.946323 39.163227 -109.401962 2.649039 32.738285 -6.762407 11.211415 -1.329466 9.277344 -18.486328 0.000000 62.845165 19.260647 31.013752 113.839249 -1.849904 22.369635 -15.423023 4.149521 -1.153486 -8.121279 3.846145 -3.327097 11.954080 -1.708066 -1.412838 43.103645 -9.058844 -4.784586 18.139469 -3.710440 -10.715646 55.347385 -0.253669 3.697741 22.239220 1.487300 11.716754 
-4.456870 53.195732 32.650169 -17.050827 -4.685423 -8.426806 31.488655 1.215104 11.555484 -17.403931 0.249473 10.722767 -10.896471 -5.171261 -5.531096 8.697967 -2.086850 -6.322687 -2.021484 10.996094 -0.001863 -33.552536 43.096085 38.317245 -109.487091 2.686837 33.189438 -7.233347 10.928893 -1.386813 8.795625 -18.360867 -0.009160 63.379868 20.749491 30.089445 116.115265 -1.866785 22.581100 -16.768902 4.707945 -1.436948 -7.124285 3.689125 -3.347261 11.371050 -1.716122 -1.382398 41.339195 -8.961793 -5.279986 18.166016 -4.042375 -11.338950 59.733578 -0.547122 3.813194 23.491846 2.619914 11.230939 
-4.797190 52.569599 34.658611 -17.725113 -4.758752 -7.947536 31.441704 1.101090 11.349850 -17.363670 0.259184 10.586050 -10.586744 -5.160769 -5.618625 8.546666 -1.931257 -6.400405 -2.175893 10.683965 -0.011400 -31.756039 42.271786 37.452362 -109.569122 2.724476 33.641403 -7.713748 10.655631 -1.442770 8.326896 -18.233837 -0.009177 63.896481 22.259859 29.176970 118.386108 -1.871977 22.790642 -18.117010 5.261169 -1.728471 -6.140727 3.524302 -3.379202 10.777772 -1.728057 -1.322409 39.589897 -8.870133 -5.757326 18.208839 -4.394715 -11.956817 64.129219 -0.817707 3.921260 24.759422 3.705310 10.707809 
-5.090089 51.813095 36.574471 -18.259851 -4.473342 -7.494277 31.472088 0.700147 10.850460 -17.357145 0.249851 10.254021 -10.502246 -5.180724 -5.560272 8.269147 -1.824713 -6.341193 -1.785498 9.375304 -0.011221 -31.362631 40.464031 34.789906 -108.643341 2.811833 35.031250 -8.146663 10.489826 -1.502233 7.614117 -17.598951 -0.009226 64.843880 23.209396 28.583603 119.917442 -1.927057 23.387779 -19.382393 5.544648 -1.956448 -7.097252 2.840930 -3.033455 15.471751 -1.620906 -1.658512 34.752785 -8.726332 -6.800813 17.218060 -5.272588 -12.349825 68.795998 -1.144166 4.022195 25.825764 4.900648 10.080942 
-5.382977 51.056591 38.490303 -18.800978 -4.177362 -7.040440 31.511181 0.307423 10.341962 -17.340746 0.240489 9.921991 -10.406192 -5.210313 -5.511650 7.982083 -1.718142 -6.282319 -1.395101 8.066645 -0.011037 -30.871550 38.668324 32.189590 -107.717361 2.921659 36.422180 -8.578914 10.314102 -1.556081 6.904297 -16.953125 0.002848 65.792793 24.159842 28.003065 121.440750 -1.955242 23.980488 -20.638706 5.824306 -2.188462 -8.064659 2.176997 -2.656875 20.191839 -1.504314 -1.948704 29.920105 -8.494704 -7.795162 16.253819 -6.180560 -12.732853 73.472824 -1.456524 4.105132 26.894085 6.066877 9.442979 
